<svg xmlns="http://www.w3.org/2000/svg" width="1132.276" height="515.904" viewBox="0 0 1132.276 515.904">
  <g id="Group_6" data-name="Group 6" transform="translate(0 0)">
    <path id="Path_192" data-name="Path 192" d="M175.756,700.143l-1.943-.438c21.666-96.349,76.113-183.842,153.311-246.364a442.269,442.269,0,0,1,709.2,245.188l-1.941.442C988.517,497.6,812.032,356.964,605.2,356.964,401.078,356.964,220.471,501.291,175.756,700.143Z" transform="translate(-32.091 -191.653)" fill="#3f3d56"/>
    <circle id="Ellipse_23" data-name="Ellipse 23" cx="54.09" cy="54.09" r="54.09" transform="translate(841.806 164.9)" fill="#ff6584"/>
    <rect id="Rectangle_41" data-name="Rectangle 41" width="1.992" height="78.672" transform="translate(873.356 435.241)" fill="#3f3d56"/>
    <path id="Path_193" data-name="Path 193" d="M928.8,637.889c.127,27.51-19.228,49.9-19.228,49.9s-19.56-22.211-19.687-49.721,19.228-49.9,19.228-49.9S928.668,610.379,928.8,637.889Z" transform="translate(-35.066 -192.622)" fill="#01e0ad"/>
    <circle id="Ellipse_24" data-name="Ellipse 24" cx="31.118" cy="31.118" r="31.118" transform="translate(467.822 216.59)" fill="#01e0ad" opacity="0.4"/>
    <circle id="Ellipse_25" data-name="Ellipse 25" cx="21.829" cy="21.829" r="21.829" transform="translate(419.52 240.741)" fill="#01e0ad" opacity="0.4"/>
    <circle id="Ellipse_26" data-name="Ellipse 26" cx="21.829" cy="21.829" r="21.829" transform="translate(185.496 303.48)" fill="#01e0ad" opacity="0.4"/>
    <circle id="Ellipse_27" data-name="Ellipse 27" cx="31.118" cy="31.118" r="31.118" transform="translate(821.636 214.03)" fill="#01e0ad" opacity="0.4"/>
    <path id="Path_195" data-name="Path 195" d="M88.128,698.192c1.687,6.236,7.465,10.1,7.465,10.1s3.043-6.248,1.356-12.484-7.465-10.1-7.465-10.1S86.442,691.956,88.128,698.192Z" transform="translate(-31.733 -193.027)" fill="#3f3d56"/>
    <path id="Path_196" data-name="Path 196" d="M90.571,696.878c4.629,4.506,5.194,11.433,5.194,11.433s-6.94-.379-11.568-4.885S79,691.993,79,691.993,85.943,692.372,90.571,696.878Z" transform="translate(-31.697 -193.053)" fill="#6c63ff"/>
    <path id="Path_197" data-name="Path 197" d="M700.129,698.192c1.687,6.236,7.465,10.1,7.465,10.1s3.043-6.248,1.356-12.484-7.465-10.1-7.465-10.1S698.442,691.956,700.129,698.192Z" transform="translate(-34.276 -193.027)" fill="#3f3d56"/>
    <path id="Path_198" data-name="Path 198" d="M702.572,696.878c4.629,4.506,5.194,11.433,5.194,11.433s-6.939-.379-11.568-4.885S691,691.993,691,691.993,697.942,692.372,702.572,696.878Z" transform="translate(-34.24 -193.053)" fill="#6c63ff"/>
    <path id="Path_199" data-name="Path 199" d="M68.12,460.037,64,453.17l38.454-32.961h98.881v9.613l-35.707,38.455-41.2,8.24Z" transform="translate(-0.266 -1.746)" fill="#ff6584"/>
    <path id="Path_200" data-name="Path 200" d="M218.74,439.543V418.056H205.794v6.776l-4.075-4.631-32.96,32.961-5.494,5.493L156.4,486.122l12.36,30.213h63.173v-61.8Z" transform="translate(-0.65 -1.737)" fill="#ccc"/>
    <rect id="Rectangle_42" data-name="Rectangle 42" width="104.375" height="63.174" transform="translate(63.734 451.425)" fill="#f2f2f2"/>
    <rect id="Rectangle_43" data-name="Rectangle 43" width="21.974" height="19.227" transform="translate(131.714 471.338)" fill="#3f3d56"/>
    <rect id="Rectangle_44" data-name="Rectangle 44" width="19.227" height="43.947" transform="translate(103.561 470.651)" fill="#ccc"/>
    <path id="Path_201" data-name="Path 201" d="M81.894,479.481v-6.866h-8.24v6.866h8.24Z" transform="translate(-0.306 -1.964)" fill="#3f3d56"/>
    <path id="Path_202" data-name="Path 202" d="M81.206,485.026H73.654v6.867h8.24v-6.867Z" transform="translate(-0.306 -2.015)" fill="#3f3d56"/>
    <rect id="Rectangle_45" data-name="Rectangle 45" width="8.24" height="6.867" transform="translate(87.081 470.651)" fill="#3f3d56"/>
    <rect id="Rectangle_46" data-name="Rectangle 46" width="8.24" height="6.867" transform="translate(87.081 483.011)" fill="#3f3d56"/>
    <path id="Path_203" data-name="Path 203" d="M198.426,480.171V473.3h-8.241v6.867h8.241Z" transform="translate(-0.79 -1.966)" fill="#3f3d56"/>
    <path id="Path_204" data-name="Path 204" d="M197.738,485.716h-7.553v6.866h8.241v-6.866Z" transform="translate(-0.79 -2.018)" fill="#3f3d56"/>
    <rect id="Rectangle_47" data-name="Rectangle 47" width="8.24" height="6.867" transform="translate(203.129 471.338)" fill="#3f3d56"/>
    <rect id="Rectangle_48" data-name="Rectangle 48" width="8.24" height="6.867" transform="translate(203.129 483.698)" fill="#3f3d56"/>
    <path id="Path_205" data-name="Path 205" d="M467.12,460.037,463,453.17l38.454-32.961h98.881v9.613l-35.707,38.455-41.2,8.24Z" transform="translate(-1.924 -1.746)" fill="#ff6584"/>
    <path id="Path_206" data-name="Path 206" d="M617.74,439.543V418.056H604.794v6.776l-4.075-4.631-32.961,32.961-5.494,5.493L555.4,486.122l12.36,30.213h63.173v-61.8Z" transform="translate(-2.308 -1.737)" fill="#ccc"/>
    <rect id="Rectangle_49" data-name="Rectangle 49" width="104.375" height="63.174" transform="translate(461.076 451.425)" fill="#f2f2f2"/>
    <rect id="Rectangle_50" data-name="Rectangle 50" width="21.974" height="19.227" transform="translate(529.057 471.338)" fill="#3f3d56"/>
    <rect id="Rectangle_51" data-name="Rectangle 51" width="19.227" height="43.947" transform="translate(500.903 470.651)" fill="#ccc"/>
    <path id="Path_207" data-name="Path 207" d="M480.894,479.481v-6.866h-8.24v6.866h8.24Z" transform="translate(-1.964 -1.964)" fill="#3f3d56"/>
    <path id="Path_208" data-name="Path 208" d="M480.206,485.026h-7.552v6.867h8.24v-6.867Z" transform="translate(-1.964 -2.015)" fill="#3f3d56"/>
    <rect id="Rectangle_52" data-name="Rectangle 52" width="8.24" height="6.867" transform="translate(484.423 470.651)" fill="#3f3d56"/>
    <rect id="Rectangle_53" data-name="Rectangle 53" width="8.24" height="6.867" transform="translate(484.423 483.011)" fill="#3f3d56"/>
    <path id="Path_209" data-name="Path 209" d="M597.426,480.171V473.3h-8.241v6.867h8.241Z" transform="translate(-2.448 -1.966)" fill="#3f3d56"/>
    <path id="Path_210" data-name="Path 210" d="M596.738,485.716h-7.554v6.866h8.241v-6.866Z" transform="translate(-2.448 -2.018)" fill="#3f3d56"/>
    <rect id="Rectangle_54" data-name="Rectangle 54" width="8.24" height="6.867" transform="translate(600.471 471.338)" fill="#3f3d56"/>
    <rect id="Rectangle_55" data-name="Rectangle 55" width="8.24" height="6.867" transform="translate(600.471 483.698)" fill="#3f3d56"/>
    <path id="Path_211" data-name="Path 211" d="M280.486,344.195,273.62,338.7l38.454-34.334h97.507v30.214l-63.173,42.574Z" transform="translate(-1.137 -1.265)" fill="#ff6584"/>
    <path id="Path_212" data-name="Path 212" d="M427.663,323.627V305.053H414.717V309.6l-4.832-5.235L378.3,338.7l-12.359,8.241L346.773,486.96l28.9,28.9h67.17V340.074Z" transform="translate(-1.441 -1.265)" fill="#ccc"/>
    <rect id="Rectangle_56" data-name="Rectangle 56" width="104.375" height="177.162" transform="translate(272.483 337.436)" fill="#f2f2f2"/>
    <rect id="Rectangle_57" data-name="Rectangle 57" width="19.227" height="43.26" transform="translate(312.996 471.338)" fill="#ccc"/>
    <path id="Path_213" data-name="Path 213" d="M293.582,485.687v-6.866h-8.24v6.866h8.24Z" transform="translate(-1.185 -1.989)" fill="#3f3d56"/>
    <path id="Path_214" data-name="Path 214" d="M292.9,491.232h-7.553V498.1h8.24v-6.867Z" transform="translate(-1.185 -2.041)" fill="#3f3d56"/>
    <rect id="Rectangle_58" data-name="Rectangle 58" width="8.24" height="6.867" transform="translate(297.889 476.832)" fill="#3f3d56"/>
    <rect id="Rectangle_59" data-name="Rectangle 59" width="8.24" height="6.867" transform="translate(297.889 489.191)" fill="#3f3d56"/>
    <path id="Path_215" data-name="Path 215" d="M350.124,485.687v-6.866h-8.24v6.866h8.24Z" transform="translate(-1.42 -1.989)" fill="#3f3d56"/>
    <path id="Path_216" data-name="Path 216" d="M349.437,491.232h-7.553V498.1h8.24v-6.867Z" transform="translate(-1.42 -2.041)" fill="#3f3d56"/>
    <rect id="Rectangle_60" data-name="Rectangle 60" width="8.24" height="6.867" transform="translate(354.197 476.832)" fill="#3f3d56"/>
    <rect id="Rectangle_61" data-name="Rectangle 61" width="8.24" height="6.867" transform="translate(354.197 489.191)" fill="#3f3d56"/>
    <path id="Path_217" data-name="Path 217" d="M408.045,347.779v-6.866H399.8v6.866h8.24Z" transform="translate(-1.661 -1.416)" fill="#3f3d56"/>
    <path id="Path_218" data-name="Path 218" d="M407.358,353.325H399.8v6.866h8.24v-6.866Z" transform="translate(-1.661 -1.468)" fill="#3f3d56"/>
    <rect id="Rectangle_62" data-name="Rectangle 62" width="8.24" height="6.867" transform="translate(411.878 339.497)" fill="#3f3d56"/>
    <rect id="Rectangle_63" data-name="Rectangle 63" width="8.24" height="6.867" transform="translate(411.878 351.857)" fill="#3f3d56"/>
    <path id="Path_219" data-name="Path 219" d="M408.045,386.394v-6.867H399.8v6.867h8.24Z" transform="translate(-1.661 -1.577)" fill="#3f3d56"/>
    <path id="Path_220" data-name="Path 220" d="M407.358,391.939H399.8v6.866h8.24v-6.866Z" transform="translate(-1.661 -1.628)" fill="#3f3d56"/>
    <rect id="Rectangle_64" data-name="Rectangle 64" width="8.24" height="6.867" transform="translate(411.878 377.95)" fill="#3f3d56"/>
    <rect id="Rectangle_65" data-name="Rectangle 65" width="8.24" height="6.867" transform="translate(411.878 390.311)" fill="#3f3d56"/>
    <path id="Path_221" data-name="Path 221" d="M408.045,425.008v-6.867H399.8v6.867h8.24Z" transform="translate(-1.661 -1.737)" fill="#3f3d56"/>
    <path id="Path_222" data-name="Path 222" d="M407.358,430.553H399.8v6.866h8.24v-6.866Z" transform="translate(-1.661 -1.789)" fill="#3f3d56"/>
    <rect id="Rectangle_66" data-name="Rectangle 66" width="8.24" height="6.867" transform="translate(411.878 416.404)" fill="#3f3d56"/>
    <rect id="Rectangle_67" data-name="Rectangle 67" width="8.24" height="6.867" transform="translate(411.878 428.764)" fill="#3f3d56"/>
    <path id="Path_223" data-name="Path 223" d="M408.045,463.622v-6.867H399.8v6.867h8.24Z" transform="translate(-1.661 -1.898)" fill="#3f3d56"/>
    <path id="Path_224" data-name="Path 224" d="M407.358,469.167H399.8v6.866h8.24v-6.866Z" transform="translate(-1.661 -1.949)" fill="#3f3d56"/>
    <rect id="Rectangle_68" data-name="Rectangle 68" width="8.24" height="6.867" transform="translate(411.878 454.857)" fill="#3f3d56"/>
    <rect id="Rectangle_69" data-name="Rectangle 69" width="8.24" height="6.867" transform="translate(411.878 467.218)" fill="#3f3d56"/>
    <rect id="Rectangle_70" data-name="Rectangle 70" width="79.654" height="16.48" transform="translate(284.156 346.363)" fill="#3f3d56"/>
    <rect id="Rectangle_71" data-name="Rectangle 71" width="79.654" height="16.48" transform="translate(284.156 379.323)" fill="#3f3d56"/>
    <rect id="Rectangle_72" data-name="Rectangle 72" width="79.654" height="16.48" transform="translate(284.156 412.284)" fill="#3f3d56"/>
    <rect id="Rectangle_73" data-name="Rectangle 73" width="79.654" height="16.48" transform="translate(284.156 445.244)" fill="#3f3d56"/>
    <path id="Path_225" data-name="Path 225" d="M683.486,344.195,676.62,338.7l38.454-34.334h97.507v30.214l-63.174,42.574Z" transform="translate(-2.811 -1.265)" fill="#ff6584"/>
    <path id="Path_226" data-name="Path 226" d="M830.662,323.627V305.053H817.716V309.6l-4.832-5.235L781.3,338.7l-12.359,8.241L749.773,486.96l28.9,28.9h67.17V340.074Z" transform="translate(-3.115 -1.265)" fill="#ccc"/>
    <rect id="Rectangle_74" data-name="Rectangle 74" width="104.375" height="177.162" transform="translate(673.809 337.436)" fill="#f2f2f2"/>
    <rect id="Rectangle_75" data-name="Rectangle 75" width="19.227" height="43.26" transform="translate(714.322 471.338)" fill="#ccc"/>
    <path id="Path_227" data-name="Path 227" d="M696.582,485.687v-6.866h-8.24v6.866h8.24Z" transform="translate(-2.86 -1.989)" fill="#3f3d56"/>
    <path id="Path_228" data-name="Path 228" d="M695.9,491.232h-7.554V498.1h8.24v-6.867Z" transform="translate(-2.86 -2.041)" fill="#3f3d56"/>
    <rect id="Rectangle_76" data-name="Rectangle 76" width="8.24" height="6.867" transform="translate(699.215 476.832)" fill="#3f3d56"/>
    <rect id="Rectangle_77" data-name="Rectangle 77" width="8.24" height="6.867" transform="translate(699.215 489.191)" fill="#3f3d56"/>
    <path id="Path_229" data-name="Path 229" d="M753.124,485.687v-6.866h-8.24v6.866h8.24Z" transform="translate(-3.095 -1.989)" fill="#3f3d56"/>
    <path id="Path_230" data-name="Path 230" d="M752.438,491.232h-7.554V498.1h8.24v-6.867Z" transform="translate(-3.095 -2.041)" fill="#3f3d56"/>
    <rect id="Rectangle_78" data-name="Rectangle 78" width="8.24" height="6.867" transform="translate(755.523 476.832)" fill="#3f3d56"/>
    <rect id="Rectangle_79" data-name="Rectangle 79" width="8.24" height="6.867" transform="translate(755.523 489.191)" fill="#3f3d56"/>
    <path id="Path_231" data-name="Path 231" d="M811.044,347.779v-6.866H802.8v6.866h8.24Z" transform="translate(-3.335 -1.416)" fill="#3f3d56"/>
    <path id="Path_232" data-name="Path 232" d="M810.358,353.325H802.8v6.866h8.24v-6.866Z" transform="translate(-3.335 -1.468)" fill="#3f3d56"/>
    <rect id="Rectangle_80" data-name="Rectangle 80" width="8.24" height="6.867" transform="translate(813.203 339.497)" fill="#3f3d56"/>
    <rect id="Rectangle_81" data-name="Rectangle 81" width="8.24" height="6.867" transform="translate(813.203 351.857)" fill="#3f3d56"/>
    <path id="Path_233" data-name="Path 233" d="M811.044,386.394v-6.867H802.8v6.867h8.24Z" transform="translate(-3.335 -1.577)" fill="#3f3d56"/>
    <path id="Path_234" data-name="Path 234" d="M810.358,391.939H802.8v6.866h8.24v-6.866Z" transform="translate(-3.335 -1.628)" fill="#3f3d56"/>
    <rect id="Rectangle_82" data-name="Rectangle 82" width="8.24" height="6.867" transform="translate(813.203 377.95)" fill="#3f3d56"/>
    <rect id="Rectangle_83" data-name="Rectangle 83" width="8.24" height="6.867" transform="translate(813.203 390.311)" fill="#3f3d56"/>
    <path id="Path_235" data-name="Path 235" d="M811.044,425.008v-6.867H802.8v6.867h8.24Z" transform="translate(-3.335 -1.737)" fill="#3f3d56"/>
    <path id="Path_236" data-name="Path 236" d="M810.358,430.553H802.8v6.866h8.24v-6.866Z" transform="translate(-3.335 -1.789)" fill="#3f3d56"/>
    <rect id="Rectangle_84" data-name="Rectangle 84" width="8.24" height="6.867" transform="translate(813.203 416.404)" fill="#3f3d56"/>
    <rect id="Rectangle_85" data-name="Rectangle 85" width="8.24" height="6.867" transform="translate(813.203 428.764)" fill="#3f3d56"/>
    <path id="Path_237" data-name="Path 237" d="M811.044,463.622v-6.867H802.8v6.867h8.24Z" transform="translate(-3.335 -1.898)" fill="#3f3d56"/>
    <path id="Path_238" data-name="Path 238" d="M810.358,469.167H802.8v6.866h8.24v-6.866Z" transform="translate(-3.335 -1.949)" fill="#3f3d56"/>
    <rect id="Rectangle_86" data-name="Rectangle 86" width="8.24" height="6.867" transform="translate(813.203 454.857)" fill="#3f3d56"/>
    <rect id="Rectangle_87" data-name="Rectangle 87" width="8.24" height="6.867" transform="translate(813.203 467.218)" fill="#3f3d56"/>
    <rect id="Rectangle_88" data-name="Rectangle 88" width="79.654" height="16.48" transform="translate(685.482 346.363)" fill="#3f3d56"/>
    <rect id="Rectangle_89" data-name="Rectangle 89" width="79.654" height="16.48" transform="translate(685.482 379.323)" fill="#3f3d56"/>
    <rect id="Rectangle_90" data-name="Rectangle 90" width="79.654" height="16.48" transform="translate(685.482 412.284)" fill="#3f3d56"/>
    <rect id="Rectangle_91" data-name="Rectangle 91" width="79.654" height="16.48" transform="translate(685.482 445.244)" fill="#3f3d56"/>
    <path id="Path_239" data-name="Path 239" d="M904.486,344.195,897.62,338.7l38.454-34.334h97.509v30.214l-63.175,42.574Z" transform="translate(-3.729 -1.265)" fill="#ff6584"/>
    <path id="Path_240" data-name="Path 240" d="M1051.662,323.627V305.053h-12.946V309.6l-4.83-5.235L1002.3,338.7l-12.36,8.241L970.773,486.96l28.9,28.9h67.174V340.074Z" transform="translate(-4.033 -1.265)" fill="#ccc"/>
    <rect id="Rectangle_92" data-name="Rectangle 92" width="104.375" height="177.162" transform="translate(893.891 337.436)" fill="#f2f2f2"/>
    <rect id="Rectangle_93" data-name="Rectangle 93" width="19.227" height="43.26" transform="translate(934.404 471.338)" fill="#ccc"/>
    <path id="Path_241" data-name="Path 241" d="M917.582,485.687v-6.866h-8.24v6.866h8.24Z" transform="translate(-3.778 -1.989)" fill="#3f3d56"/>
    <path id="Path_242" data-name="Path 242" d="M916.9,491.232h-7.553V498.1h8.24v-6.867Z" transform="translate(-3.778 -2.041)" fill="#3f3d56"/>
    <rect id="Rectangle_94" data-name="Rectangle 94" width="8.24" height="6.867" transform="translate(919.297 476.832)" fill="#3f3d56"/>
    <rect id="Rectangle_95" data-name="Rectangle 95" width="8.24" height="6.867" transform="translate(919.297 489.191)" fill="#3f3d56"/>
    <path id="Path_243" data-name="Path 243" d="M974.124,485.687v-6.866h-8.24v6.866h8.24Z" transform="translate(-4.013 -1.989)" fill="#3f3d56"/>
    <path id="Path_244" data-name="Path 244" d="M973.437,491.232h-7.553V498.1h8.24v-6.867Z" transform="translate(-4.013 -2.041)" fill="#3f3d56"/>
    <rect id="Rectangle_96" data-name="Rectangle 96" width="8.24" height="6.867" transform="translate(975.605 476.832)" fill="#3f3d56"/>
    <rect id="Rectangle_97" data-name="Rectangle 97" width="8.24" height="6.867" transform="translate(975.605 489.191)" fill="#3f3d56"/>
    <path id="Path_245" data-name="Path 245" d="M1032.046,347.779v-6.866H1023.8v6.866h8.246Z" transform="translate(-4.253 -1.416)" fill="#3f3d56"/>
    <path id="Path_246" data-name="Path 246" d="M1031.358,353.325H1023.8v6.866h8.246v-6.866Z" transform="translate(-4.253 -1.468)" fill="#3f3d56"/>
    <rect id="Rectangle_98" data-name="Rectangle 98" width="8.24" height="6.867" transform="translate(1033.289 339.497)" fill="#3f3d56"/>
    <rect id="Rectangle_99" data-name="Rectangle 99" width="8.24" height="6.867" transform="translate(1033.289 351.857)" fill="#3f3d56"/>
    <path id="Path_247" data-name="Path 247" d="M1032.046,386.394v-6.867H1023.8v6.867h8.246Z" transform="translate(-4.253 -1.577)" fill="#3f3d56"/>
    <path id="Path_248" data-name="Path 248" d="M1031.358,391.939H1023.8v6.866h8.246v-6.866Z" transform="translate(-4.253 -1.628)" fill="#3f3d56"/>
    <rect id="Rectangle_100" data-name="Rectangle 100" width="8.24" height="6.867" transform="translate(1033.289 377.95)" fill="#3f3d56"/>
    <rect id="Rectangle_101" data-name="Rectangle 101" width="8.24" height="6.867" transform="translate(1033.289 390.311)" fill="#3f3d56"/>
    <path id="Path_249" data-name="Path 249" d="M1032.046,425.008v-6.867H1023.8v6.867h8.246Z" transform="translate(-4.253 -1.737)" fill="#3f3d56"/>
    <path id="Path_250" data-name="Path 250" d="M1031.358,430.553H1023.8v6.866h8.246v-6.866Z" transform="translate(-4.253 -1.789)" fill="#3f3d56"/>
    <rect id="Rectangle_102" data-name="Rectangle 102" width="8.24" height="6.867" transform="translate(1033.289 416.404)" fill="#3f3d56"/>
    <rect id="Rectangle_103" data-name="Rectangle 103" width="8.24" height="6.867" transform="translate(1033.289 428.764)" fill="#3f3d56"/>
    <path id="Path_251" data-name="Path 251" d="M1032.046,463.622v-6.867H1023.8v6.867h8.246Z" transform="translate(-4.253 -1.898)" fill="#3f3d56"/>
    <path id="Path_252" data-name="Path 252" d="M1031.358,469.167H1023.8v6.866h8.246v-6.866Z" transform="translate(-4.253 -1.949)" fill="#3f3d56"/>
    <rect id="Rectangle_104" data-name="Rectangle 104" width="8.24" height="6.867" transform="translate(1033.289 454.857)" fill="#3f3d56"/>
    <rect id="Rectangle_105" data-name="Rectangle 105" width="8.24" height="6.867" transform="translate(1033.289 467.218)" fill="#3f3d56"/>
    <rect id="Rectangle_106" data-name="Rectangle 106" width="79.654" height="16.48" transform="translate(905.564 346.363)" fill="#3f3d56"/>
    <rect id="Rectangle_107" data-name="Rectangle 107" width="79.654" height="16.48" transform="translate(905.564 379.323)" fill="#3f3d56"/>
    <rect id="Rectangle_108" data-name="Rectangle 108" width="79.654" height="16.48" transform="translate(905.564 412.284)" fill="#3f3d56"/>
    <rect id="Rectangle_109" data-name="Rectangle 109" width="79.654" height="16.48" transform="translate(905.564 445.244)" fill="#3f3d56"/>
    <rect id="Rectangle_110" data-name="Rectangle 110" width="1132.276" height="1.992" transform="translate(0 513.913)" fill="#3f3d56"/>
    <rect id="Rectangle_111" data-name="Rectangle 111" width="1.992" height="78.672" transform="translate(250.953 435.241)" fill="#3f3d56"/>
    <path id="Path_253" data-name="Path 253" d="M303.8,637.889c.127,27.51-19.228,49.9-19.228,49.9s-19.56-22.211-19.687-49.721,19.228-49.9,19.228-49.9S303.668,610.379,303.8,637.889Z" transform="translate(-32.47 -192.622)" fill="#01e0ad"/>
    <rect id="Rectangle_112" data-name="Rectangle 112" width="1.992" height="78.672" transform="translate(450.122 435.241)" fill="#3f3d56"/>
    <path id="Path_254" data-name="Path 254" d="M503.8,637.889c.127,27.51-19.228,49.9-19.228,49.9s-19.56-22.211-19.687-49.721,19.228-49.9,19.228-49.9S503.668,610.379,503.8,637.889Z" transform="translate(-33.301 -192.622)" fill="#01e0ad"/>
    <rect id="Rectangle_113" data-name="Rectangle 113" width="1.992" height="78.672" transform="translate(847.464 435.241)" fill="#3f3d56"/>
    <path id="Path_255" data-name="Path 255" d="M902.8,637.889c.127,27.51-19.228,49.9-19.228,49.9s-19.56-22.211-19.687-49.721,19.228-49.9,19.228-49.9S902.668,610.379,902.8,637.889Z" transform="translate(-34.958 -192.622)" fill="#01e0ad"/>
    <ellipse id="Ellipse_28" data-name="Ellipse 28" cx="37.842" cy="8.514" rx="37.842" ry="8.514" transform="translate(547.217 154.306)" fill="#01e0ad"/>
    <path id="Path_256" data-name="Path 256" d="M661.634,234.789c0,24.2-43.817,92.614-43.817,92.614S574,258.989,574,234.789a43.817,43.817,0,1,1,87.634,0Z" transform="translate(-33.754 -190.972)" fill="#01e0ad"/>
    <circle id="Ellipse_29" data-name="Ellipse 29" cx="24.896" cy="24.896" r="24.896" transform="translate(559.167 18.921)" fill="#f2f2f2"/>
  </g>
</svg>
